<svg width="93" height="54" viewBox="0 0 93 54" fill="none" xmlns="http://www.w3.org/2000/svg">
<path d="M14.3249 27.7485C14.3249 25.5913 12.7411 24.0677 10.3109 24.0677H5.48314C4.78956 24.0677 4.22705 24.6302 4.22705 25.3237V30.2006C4.22705 30.8942 4.78956 31.4567 5.48314 31.4567H10.3109C12.7411 31.4622 14.3249 29.944 14.3249 27.7485ZM13.6805 12.2604C13.6805 10.1524 12.2332 8.72156 9.89036 8.72156H5.4886C4.79502 8.72156 4.23251 9.28407 4.23251 9.97765V14.5432C4.23251 15.2368 4.79502 15.7993 5.4886 15.7993H9.89036C12.2332 15.7993 13.6805 14.3685 13.6805 12.2604Z" fill="white"/>
<path d="M25.6951 19.1908C29.5289 21.0094 31.9319 24.6466 31.9319 29.0811C31.9319 35.6674 26.2467 40.659 18.7375 40.659H1.25609C0.562508 40.659 0 40.0965 0 39.4029V1.25609C0 0.56251 0.562508 0 1.25609 0H18.3662C25.575 0 30.8396 4.40177 30.8396 10.4091C30.8396 14.0354 28.8026 17.3067 25.6951 19.1908ZM20.851 27.7486C20.851 25.5914 19.2673 24.0677 16.837 24.0677H12.0093C11.3157 24.0677 10.7532 24.6302 10.7532 25.3238V30.2007C10.7532 30.8943 11.3157 31.4568 12.0093 31.4568H16.837C19.2673 31.4622 20.851 29.944 20.851 27.7486ZM20.2066 12.2605C20.2066 10.1525 18.7594 8.72161 16.4165 8.72161H12.0147C11.3212 8.72161 10.7586 9.28412 10.7586 9.9777V14.5433C10.7586 15.2369 11.3212 15.7994 12.0147 15.7994H16.4165C18.7594 15.7994 20.2066 14.3685 20.2066 12.2605Z" fill="white"/>
<path d="M59.9644 32.3087V39.3974C59.9644 40.091 59.4019 40.6535 58.7083 40.6535H34.1382C33.4446 40.6535 32.8821 40.091 32.8821 39.3974C32.8821 39.1735 32.9422 38.9496 33.0568 38.753L43.7663 20.7254C44.2633 19.8844 43.6626 18.8249 42.685 18.8249H35.2031C34.5095 18.8249 33.947 18.2624 33.947 17.5688V10.5456C33.947 9.85206 34.5095 9.28955 35.2031 9.28955H58.5827C59.2763 9.28955 59.8388 9.85206 59.8388 10.5456V10.704C59.8388 10.9279 59.7787 11.1518 59.664 11.343L49.1184 29.1466C48.6214 29.9877 49.2276 31.0471 50.1997 31.0471H58.7083C59.4019 31.0526 59.9644 31.6151 59.9644 32.3087Z" fill="white"/>
<path d="M61.1768 27.1915V10.5456C61.1768 9.85206 61.7393 9.28955 62.4328 9.28955H70.723C71.4166 9.28955 71.9791 9.85206 71.9791 10.5456V26.7218C71.9791 30.0314 73.7595 31.981 76.6485 31.981C79.5375 31.981 81.2796 29.9986 81.2796 26.7218V10.5456C81.2796 9.85206 81.8421 9.28955 82.5357 9.28955H90.8259C91.5194 9.28955 92.0819 9.85206 92.0819 10.5456V27.1915C92.0819 35.9677 85.9107 41.6856 76.643 41.6856C67.3807 41.6856 61.1768 35.9732 61.1768 27.1915Z" fill="white"/>
<path d="M61.4361 45.5078L60.1243 53.2918H58.9058L60.2176 45.5078H61.4361ZM63.3027 45.5078L63.1212 46.5985H58.1799L58.3666 45.5078H63.3027Z" fill="white"/>
<path d="M67.2174 52.2066L67.0307 53.2918H63.8471L64.0286 52.2066H67.2174ZM65.4856 45.5078L64.1738 53.2918H62.945L64.2516 45.5078H65.4856ZM67.373 48.7476L67.1915 49.8168H64.4331L64.6093 48.7476H67.373ZM68.3166 45.5078L68.13 46.5985H64.9671L65.1538 45.5078H68.3166Z" fill="white"/>
<path d="M72.0084 50.7578L73.1957 50.7417C73.1335 51.2656 72.9866 51.7308 72.755 52.1371C72.5234 52.5398 72.214 52.8552 71.8269 53.0833C71.4397 53.3079 70.9783 53.413 70.4425 53.3987C70 53.3881 69.6371 53.2829 69.3536 53.0833C69.0702 52.8837 68.8524 52.6236 68.7003 52.3028C68.5482 51.982 68.4532 51.6292 68.4151 51.2443C68.3806 50.8593 68.3875 50.4744 68.4359 50.0895L68.6433 48.7102C68.7055 48.2932 68.8092 47.8851 68.9544 47.4859C69.103 47.0832 69.2983 46.7232 69.5403 46.406C69.7857 46.0888 70.083 45.8393 70.4321 45.6575C70.7847 45.4758 71.1909 45.3902 71.6506 45.4009C72.1725 45.4116 72.5856 45.5399 72.8898 45.7858C73.194 46.0282 73.41 46.3525 73.5379 46.7588C73.6658 47.1616 73.7263 47.6035 73.7194 48.0847L72.4906 48.0793C72.5009 47.8192 72.4906 47.5697 72.4595 47.3309C72.4318 47.0885 72.3523 46.8889 72.2209 46.7321C72.0896 46.5753 71.8701 46.4915 71.5624 46.4808C71.2652 46.4701 71.0146 46.5325 70.8106 46.668C70.6101 46.7998 70.4459 46.978 70.318 47.2026C70.1901 47.4235 70.0916 47.6659 70.0225 47.9296C69.9534 48.1934 69.9015 48.45 69.8669 48.6995L69.6647 50.0948C69.6371 50.2944 69.6163 50.519 69.6025 50.7684C69.5921 51.0179 69.6077 51.2585 69.6492 51.4902C69.6907 51.7218 69.7788 51.9161 69.9136 52.0729C70.0484 52.2262 70.2524 52.3099 70.5254 52.3242C70.8607 52.3384 71.1252 52.2761 71.3187 52.1371C71.5158 51.9981 71.6644 51.8074 71.7647 51.565C71.8684 51.3227 71.9496 51.0536 72.0084 50.7578Z" fill="white"/>
<path d="M78.6815 48.7476L78.4948 49.8382H75.3994L75.586 48.7476H78.6815ZM76.426 45.5078L75.1142 53.2918H73.8853L75.192 45.5078H76.426ZM80.1799 45.5078L78.8681 53.2918H77.6445L78.9563 45.5078H80.1799Z" fill="white"/>
</svg>
